<?xml version="1.0" standalone="no"?><!DOCTYPE svg PUBLIC "-//W3C//DTD SVG 1.1//EN" "http://www.w3.org/Graphics/SVG/1.1/DTD/svg11.dtd"><svg t="1614849842086" class="icon" viewBox="0 0 1024 1024" version="1.1" xmlns="http://www.w3.org/2000/svg" p-id="5508" xmlns:xlink="http://www.w3.org/1999/xlink" width="200" height="200"><defs><style type="text/css"></style></defs><path d="M475.136 128.512v274.432c0 41.472-31.744 72.704-70.144 72.704h-259.584c-38.912 0-70.144-31.744-70.144-72.704V128.512c0-41.472 31.744-72.704 70.144-72.704h262.144c35.84 0 67.584 33.792 67.584 72.704z m157.696 347.136h262.144c38.912 0 70.144-31.744 70.144-72.704V128.512c0-41.472-31.744-72.704-70.144-72.704h-262.144c-38.912 0-70.144 31.744-70.144 72.704v274.432c2.048 38.4 31.232 72.704 70.144 72.704zM404.48 548.352h-259.584c-38.912 0-70.144 33.792-70.144 72.704v271.872c0 41.472 31.744 72.704 70.144 72.704h262.144c38.912 0 70.144-31.744 70.144-72.704v-271.872c-2.048-38.912-33.792-72.704-72.704-72.704z m497.664 0h-259.584c-38.912 0-70.144 33.792-70.144 72.704v271.872c0 41.472 31.744 72.704 70.144 72.704h262.144c38.912 0 70.144-31.744 70.144-72.704v-271.872c-2.048-38.912-33.792-72.704-72.704-72.704z" p-id="5509"></path></svg>