<?xml version="1.0" standalone="no"?><!DOCTYPE svg PUBLIC "-//W3C//DTD SVG 1.1//EN" "http://www.w3.org/Graphics/SVG/1.1/DTD/svg11.dtd"><svg t="1614852167689" class="icon" viewBox="0 0 1024 1024" version="1.1" xmlns="http://www.w3.org/2000/svg" p-id="7011" xmlns:xlink="http://www.w3.org/1999/xlink" width="200" height="200"><defs><style type="text/css"></style></defs><path d="M421.76 630.058667a1077.888 1077.888 0 0 1 184.192 0 637.013333 637.013333 0 0 1 99.584 14.634666c70.826667 14.293333 117.077333 42.453333 136.448 83.754667a128.042667 128.042667 0 0 1-1.109333 107.733333c-19.754667 41.301333-66.005333 69.461333-137.984 84.053334-32.64 7.381333-65.792 12.16-99.157334 14.293333-36.949333 4.138667-68.266667 4.138667-97.365333 4.138667h-11.52a32.597333 32.597333 0 0 1-29.013333-32.469334c0-16.682667 12.501333-30.72 29.013333-32.469333h25.514667A1020.586667 1020.586667 0 0 0 597.333333 869.973333a607.36 607.36 0 0 0 90.24-12.8c51.072-11.221333 83.2-27.392 93.226667-48.768 7.850667-16.384 7.850667-35.413333 0-51.797333-10.069333-21.76-42.154667-38.698667-92.117333-48.810667a580.693333 580.693333 0 0 0-91.733334-13.141333 955.306667 955.306667 0 0 0-173.397333 0c-30.464 1.962667-60.757333 6.229333-90.624 12.757333-51.072 11.264-82.773333 27.392-93.226667 48.810667a63.829333 63.829333 0 0 0 0 52.181333 108.373333 108.373333 0 0 0 74.581334 43.946667l4.352 1.152a32.810667 32.810667 0 0 1 11.989333 54.314667 32.298667 32.298667 0 0 1-32.725333 7.552 165.162667 165.162667 0 0 1-115.2-78.805334 126.549333 126.549333 0 0 1 0-107.776c19.712-42.410667 65.962667-69.802667 137.216-84.48a684.032 684.032 0 0 1 101.802666-14.250666z m3.413333-527.36a226.005333 226.005333 0 0 1 247.509334 49.749333 229.76 229.76 0 0 1 49.024 249.258667 227.072 227.072 0 0 1-210.090667 140.885333c-125.269333-0.213333-226.730667-102.485333-226.730667-228.608l0.213334-9.898667a228.565333 228.565333 0 0 1 140.074666-201.386666z m86.442667 47.957333c-43.093333-0.085333-84.48 17.066667-114.944 47.701333A163.84 163.84 0 0 0 349.013333 314.026667a163.712 163.712 0 0 0 100.138667 151.466666 161.792 161.792 0 0 0 177.28-35.242666 164.48 164.48 0 0 0 35.413333-178.432 162.56 162.56 0 0 0-150.229333-101.12z" fill="#200E32" p-id="7012"></path></svg>